<svg viewBox="0 0 32 32" x="0" y="0" fill="none" xmlns="http://www.w3.org/2000/svg">
    <defs>
        <clipPath id="clip4_5245_1698" xmlns="http://www.w3.org/2000/svg">
            <rect width="32" height="32" fill="white" transform="translate(0,-0.004100000000107684)" />
        </clipPath>
    </defs>
    <g id="&lt;Navigator>" data-node-id="I5294:2341;2172:4023" clip-path="url(#clip4_5245_1698)"
        xmlns="http://www.w3.org/2000/svg">
        <g id="&lt;Button>" data-node-id="I5294:2341;2172:4023;2172:3984">
            <g id="&lt;Icon>" data-node-id="I5294:2341;2172:4023;2172:3984;14432:144915">
                <path id="Vector_3"
                    data-node-id="I5294:2341;2172:4023;2172:3984;14432:144915;13200:44812"
                    fill-rule="evenodd" clip-rule="evenodd"
                    d="M13.006,14.9959l4.593,-4.59c0.091,-0.1 0.2,-0.17 0.321,-0.22c0.12,-0.05 0.25,-0.08 0.381,-0.08c0.131,0 0.26,0.02 0.381,0.07c0.121,0.05 0.231,0.13 0.324,0.22c0.092,0.09 0.166,0.2 0.215,0.32c0.05,0.12 0.075,0.25 0.075,0.38c-0.001,0.13 -0.028,0.26 -0.079,0.38c-0.05,0.13 -0.125,0.23 -0.218,0.33l-3.9,3.9l3.9,3.9c0.182,0.18 0.284,0.43 0.283,0.69c-0.002,0.26 -0.106,0.51 -0.29,0.7c-0.185,0.18 -0.435,0.29 -0.695,0.29c-0.261,0 -0.512,-0.1 -0.698,-0.28l-4.593,-4.6c-0.188,-0.18 -0.293,-0.44 -0.293,-0.7c0,-0.27 0.105,-0.52 0.293,-0.71z"
                    fill="currentColor" fill-opacity="0.31" />
            </g>
        </g>
    </g>
</svg>